# xmcd CD database file
#
# Track frame offsets:
#	150
#	12500
#	34587
#	49310
#	62827
#	76475
#	89970
#	107560
#	121700
#	141557
#	156702
#	170442
#	184212
#	206187
#	226347
#	239005
#
# Disc length: 3358 seconds
#
# Revision: 2
# Processed by: cddbd v1.4PL0 Copyright (c) Steve Scherf et al.
# Submitted via: CDex 1.40Release
#
DISCID=f00d1c10
DTITLE=Big Joe Turner - Corinne, Corinna
DYEAR=1997
DGENRE=Blues
TTITLE0=Blues
TTITLE1=Feeling Happy
TTITLE2=I Can't Give You Anything But Love Baby
TTITLE3=Shake Rattle And Roll
TTITLE4=Chains Of love
TTITLE5=Roll 'Em Pete
TTITLE6=Piney Brown blues
TTITLE7=Cherry Red
TTITLE8=Nothin' From Nuthin' Blue
TTITLE9=Honey Hush
TTITLE10=Corinne, Corinna
TTITLE11=T.V. Mama
TTITLE12=Wee Baby Blues
TTITLE13=Squeeze Me Baby
TTITLE14=Sun Risin' Blues
TTITLE15=Cry Baby Blues
EXTD=Not original recordings but very listenable. Suspect recorded in England by the style of the accompanyment. Band(s) had a feel for his music.\nsubmitted by Stan Whyte\nswhyte@powersurfr.com YEAR: 1997 ID3G: 0
EXTT0=
EXTT1=
EXTT2=
EXTT3=
EXTT4=
EXTT5=
EXTT6=
EXTT7=
EXTT8=
EXTT9=
EXTT10=
EXTT11=
EXTT12=
EXTT13=
EXTT14=
EXTT15=
PLAYORDER=
